<svg xmlns="http://www.w3.org/2000/svg" viewBox="0 0 900 1125" role="img" aria-labelledby="title desc">
  <title id="title">Fresh focaccia</title>
  <desc id="desc">A stylised freshly baked focaccia with rosemary and tomatoes on a wooden table</desc>
  <defs>
    <linearGradient id="bg" x1="0" y1="0" x2="1" y2="1"><stop stop-color="#506044"/><stop offset=".48" stop-color="#27351f"/><stop offset="1" stop-color="#171a12"/></linearGradient>
    <linearGradient id="wood" x1="0" y1="0" x2="1" y2="0"><stop stop-color="#7a4b2d"/><stop offset=".5" stop-color="#aa7142"/><stop offset="1" stop-color="#59331f"/></linearGradient>
    <radialGradient id="bread" cx="45%" cy="35%" r="72%"><stop stop-color="#f5ca73"/><stop offset=".56" stop-color="#d8943f"/><stop offset="1" stop-color="#9c5426"/></radialGradient>
    <filter id="shadow" x="-30%" y="-30%" width="160%" height="180%"><feDropShadow dx="0" dy="34" stdDeviation="28" flood-color="#090805" flood-opacity=".55"/></filter>
    <filter id="soft"><feGaussianBlur stdDeviation="18"/></filter>
  </defs>
  <rect width="900" height="1125" fill="url(#bg)"/>
  <circle cx="770" cy="180" r="170" fill="#9e7b47" opacity=".14" filter="url(#soft)"/>
  <path d="M0 333 160 216l90 71 126-175 156 205 92-101 276 194v238H0Z" fill="#1a2118" opacity=".7"/>
  <path d="M0 430 150 304l115 105 152-192 151 211 117-124 215 144v177H0Z" fill="#263128" opacity=".8"/>
  <rect y="590" width="900" height="535" fill="url(#wood)"/>
  <g opacity=".17" stroke="#2c160c" stroke-width="5"><path d="M0 710c150-48 264 44 420-7s290-7 480-53"/><path d="M0 878c180 38 280-27 466 1s297 3 434-39"/><path d="M0 1020c206-46 332 18 514-17s260-12 386 8"/></g>
  <g transform="translate(110 420) rotate(-5 350 300)" filter="url(#shadow)">
    <rect x="28" y="110" width="675" height="485" rx="68" fill="#4e2d1b"/>
    <rect x="0" y="70" width="675" height="485" rx="72" fill="url(#bread)" stroke="#f3c36d" stroke-width="8"/>
    <path d="M56 157c97-76 210-74 292-42 82 31 164-20 272 42" fill="none" stroke="#ffd98f" stroke-width="18" stroke-linecap="round" opacity=".55"/>
    <g fill="#9d5526" opacity=".72">
      <ellipse cx="110" cy="180" rx="25" ry="18"/><ellipse cx="242" cy="147" rx="24" ry="18"/><ellipse cx="381" cy="190" rx="25" ry="18"/><ellipse cx="532" cy="143" rx="24" ry="18"/>
      <ellipse cx="173" cy="305" rx="25" ry="18"/><ellipse cx="320" cy="286" rx="24" ry="18"/><ellipse cx="465" cy="323" rx="25" ry="18"/><ellipse cx="577" cy="268" rx="24" ry="18"/>
      <ellipse cx="98" cy="420" rx="25" ry="18"/><ellipse cx="259" cy="423" rx="24" ry="18"/><ellipse cx="399" cy="401" rx="25" ry="18"/><ellipse cx="550" cy="430" rx="24" ry="18"/>
    </g>
    <g fill="#bf3f31" stroke="#e66e55" stroke-width="5">
      <circle cx="205" cy="225" r="31"/><circle cx="500" cy="225" r="34"/><circle cx="361" cy="365" r="34"/><circle cx="585" cy="388" r="27"/>
    </g>
    <g stroke="#294f2e" stroke-width="10" stroke-linecap="round">
      <path d="M91 244c44-58 60-84 67-132"/><path d="m111 212-29-22m49-9 25-25m-9-19-29-19"/>
      <path d="M441 474c42-52 62-93 66-135"/><path d="m461 438-28-21m48-5 26-28m-6-25-27-16"/>
      <path d="M286 271c33-42 47-66 55-104"/><path d="m304 243-25-17m43-5 23-22"/>
    </g>
    <g fill="#f5e3b0" opacity=".85"><circle cx="153" cy="386" r="9"/><circle cx="285" cy="196" r="8"/><circle cx="434" cy="264" r="10"/><circle cx="528" cy="484" r="8"/><circle cx="609" cy="186" r="9"/></g>
  </g>
  <g transform="translate(672 730) rotate(16)"><ellipse cx="0" cy="0" rx="76" ry="25" fill="#0d130d" opacity=".45"/><path d="M-5-2c-28-65-19-123 4-174 24 56 30 113-4 174Z" fill="#486a43"/><path d="M-4-13c13-38 40-74 78-99-6 51-29 86-78 99Z" fill="#547b4c"/><path d="M-5-18c-14-39-42-65-77-84 9 46 32 76 77 84Z" fill="#3b6039"/></g>
  <rect width="900" height="1125" fill="none" stroke="#fff" stroke-opacity=".08" stroke-width="8"/>
</svg>
