<svg xmlns="http://www.w3.org/2000/svg" viewBox="0 0 600 800" role="img" aria-labelledby="title desc">
<title id="title">Карта на Италия</title>
<desc id="desc">Силует на Италия за интерактивната карта на Пътят на вкуса.</desc>
<g fill="#d9c9aa" fill-opacity="0.16" stroke="#e9dfce" stroke-width="3" stroke-linejoin="round">
<path d="M 196.29,160.07 L 225.21,166.86 L 230.76,157.77 L 277.94,149.48 L 288.61,166.08 L 356.88,178.41 L 351.70,201.92 L 363.14,222.25 L 325.14,215.30 L 286.32,232.24 L 288.96,255.94 L 283.12,269.54 L 298.77,293.84 L 343.53,317.89 L 367.54,357.35 L 420.66,395.83 L 458.07,395.53 L 469.70,406.08 L 456.31,415.59 L 499.07,432.85 L 534.12,447.29 L 575.06,472.19 L 580.00,481.10 L 571.08,498.20 L 544.58,475.91 L 503.11,468.05 L 483.02,498.93 L 517.52,516.63 L 511.86,541.54 L 491.91,544.37 L 466.41,585.32 L 446.51,588.99 L 446.70,574.40 L 456.44,548.79 L 466.81,538.60 L 448.17,510.93 L 433.60,486.85 L 413.78,480.91 L 399.69,460.30 L 369.01,451.62 L 348.35,432.43 L 313.03,429.34 L 275.73,407.79 L 232.06,376.72 L 199.60,349.22 L 184.71,302.02 L 160.95,296.47 L 122.11,280.72 L 100.14,287.17 L 72.55,309.32 L 52.71,312.82 L 58.17,292.10 L 32.30,286.04 L 20.00,249.10 L 36.55,234.56 L 22.50,216.64 L 24.47,203.15 L 45.01,213.37 L 68.03,211.10 L 94.79,194.91 L 103.07,202.48 L 125.81,200.96 L 136.15,181.71 L 171.47,187.69 L 192.50,179.64 L 196.29,160.07 Z"/>
<path d="M 402.46,577.77 L 438.70,573.61 L 421.50,611.18 L 428.65,625.97 L 418.63,650.52 L 382.12,632.54 L 357.84,627.39 L 291.21,603.12 L 297.89,578.61 L 353.76,582.97 L 402.46,577.77 Z"/>
<path d="M 113.57,446.20 L 137.44,431.40 L 166.08,465.29 L 159.38,528.43 L 137.67,525.42 L 118.20,541.36 L 100.12,528.70 L 98.21,471.10 L 87.31,443.81 L 113.57,446.20 Z"/>
</g>
</svg>